<?xml version="1.0" encoding="utf-8"?>
<!-- Generator: Adobe Illustrator 23.0.1, SVG Export Plug-In . SVG Version: 6.00 Build 0)  -->
<svg version="1.1" id="Layer_1" xmlns="http://www.w3.org/2000/svg" xmlns:xlink="http://www.w3.org/1999/xlink" x="0px" y="0px"
	 viewBox="0 0 264 280" style="enable-background:new 0 0 264 280;" xml:space="preserve">
<style type="text/css">
	.st0{fill:#5B5B5C;}
	.st1{opacity:0.6;fill:#6A6968;}
	.st2{fill:#EBA721;}
	.st3{fill:#3F4040;}
	.st4{fill:#020202;}
	.st5{fill:#4A4A4A;}
	.st6{fill:#CB8D2B;}
	.st7{fill:#212120;}
	.st8{fill:#1D458F;}
	.st9{opacity:0.6;fill:#1D458F;}
	.st10{fill:#FFFFFF;}
	.st11{fill:#C1C1C1;}
	.st12{opacity:0.5;fill:#EBA721;}
	.st13{opacity:0.4;fill:#1D458F;}
	.st14{fill:#628C9A;}
	.st15{opacity:0.5;fill:#628C9A;}
	.st16{opacity:0.8;fill:#CD2227;}
	.st17{fill:#6A6968;}
	.st18{fill:#F8C014;}
	.st19{opacity:0.1;fill:#F8C014;}
	.st20{opacity:0.3;fill:#F8C014;}
	.st21{fill:#1B1C1C;}
	.st22{opacity:0.6;fill:#1B1C1C;}
	.st23{opacity:0.8;fill:#212120;}
	.st24{opacity:0.6;fill:#EBA721;}
	.st25{opacity:0.5;fill:#6A6968;}
</style>
<desc>Created with getavataaars.com</desc>
<g>
	<g>
		<g>
			<rect x="54.2" y="176.2" class="st0" width="157.5" height="32.1"/>
			<rect x="54.2" y="206.1" class="st1" width="157.5" height="2.3"/>
			<rect x="52.3" y="208.4" class="st2" width="161.2" height="4.7"/>
			<rect x="52.3" y="211.3" class="st2" width="161.2" height="1.7"/>
			<polygon class="st3" points="214.6,243.1 132.9,260.8 51.3,243.1 56.8,213.1 209.1,213.1 			"/>
			<path class="st1" d="M209.1,213.1H56.8l-5.5,30.1l81.6,17.7l81.6-17.7L209.1,213.1z M132.9,259.1l-79-17.1l5.3-28.1h73.7V259.1z"
				/>
			<polygon class="st2" points="218.4,249 132.9,266.9 47.4,248.4 48.7,242.6 132.9,260.8 217.1,242.6 			"/>
			<g>
				<polygon class="st4" points="102.3,219 99.4,246.9 108.9,248.6 111.1,219 				"/>
				<polygon class="st4" points="67.3,219 62.6,240.3 71.6,241.9 76.1,219 				"/>
				<polygon class="st4" points="84.8,219 80.8,243.6 90.1,245.2 93.6,219 				"/>
				<g>
					<polygon class="st4" points="119.8,219 118.4,250.3 128.1,252 128.6,219 					"/>
					<polygon class="st4" points="146,219 137.3,219 137.8,252 147.4,250.3 					"/>
				</g>
				<polygon class="st4" points="203.2,240.3 198.5,219 189.8,219 194.2,241.9 				"/>
				<polygon class="st4" points="172.3,219 175.8,245.2 185,243.6 181,219 				"/>
				<polygon class="st4" points="154.8,219 157,248.6 166.4,246.9 163.5,219 				"/>
			</g>
			<g>
				<rect x="94.7" y="176.2" class="st5" width="76.5" height="22.6"/>
				<rect x="94.7" y="198.8" class="st3" width="76.5" height="9.5"/>
				<rect x="94.7" y="198.8" class="st1" width="76.5" height="2.1"/>
			</g>
			<g>
				<rect x="121" y="183.9" class="st2" width="23.8" height="24.5"/>
				<rect x="138.7" y="186.9" class="st4" width="3" height="18.4"/>
				<rect x="124.1" y="186.9" class="st4" width="3" height="18.4"/>
				<rect x="144.8" y="186.9" class="st6" width="12.2" height="18.4"/>
				<rect x="108.9" y="186.9" class="st6" width="12.2" height="18.4"/>
			</g>
			<g>
				<g>
					<path class="st4" d="M57.1,240.7c-0.7-0.2-1.4,0.3-1.6,1c-0.2,0.7,0.3,1.4,1,1.6c0.7,0.2,1.4-0.3,1.6-1
						C58.3,241.5,57.8,240.8,57.1,240.7z"/>
					<path class="st4" d="M118.4,253.9c-0.7-0.2-1.4,0.3-1.6,1c-0.2,0.7,0.3,1.4,1,1.6c0.7,0.2,1.4-0.3,1.6-1
						C119.6,254.8,119.1,254.1,118.4,253.9z"/>
					<path class="st4" d="M67.3,242.9c-0.7-0.2-1.4,0.3-1.6,1c-0.2,0.7,0.3,1.4,1,1.6c0.7,0.2,1.4-0.3,1.6-1
						C68.5,243.7,68,243,67.3,242.9z"/>
					<path class="st4" d="M77.5,245.1c-0.7-0.2-1.4,0.3-1.6,1c-0.2,0.7,0.3,1.4,1,1.6c0.7,0.2,1.4-0.3,1.6-1
						C78.7,245.9,78.2,245.2,77.5,245.1z"/>
					<path class="st4" d="M87.7,247.3c-0.7-0.2-1.4,0.3-1.6,1c-0.2,0.7,0.3,1.4,1,1.6c0.7,0.2,1.4-0.3,1.6-1
						C88.9,248.1,88.5,247.4,87.7,247.3z"/>
					<path class="st4" d="M98,249.5c-0.7-0.2-1.4,0.3-1.6,1c-0.2,0.7,0.3,1.4,1,1.6c0.7,0.2,1.4-0.3,1.6-1
						C99.1,250.3,98.7,249.6,98,249.5z"/>
					<path class="st4" d="M108.2,251.7c-0.7-0.2-1.4,0.3-1.6,1c-0.2,0.7,0.3,1.4,1,1.6c0.7,0.1,1.4-0.3,1.6-1
						C109.3,252.6,108.9,251.9,108.2,251.7z"/>
				</g>
				<g>
					<path class="st4" d="M210.6,241.7c-0.2-0.7-0.8-1.2-1.6-1c-0.7,0.2-1.2,0.9-1,1.6c0.2,0.7,0.9,1.2,1.6,1
						C210.3,243.1,210.7,242.4,210.6,241.7z"/>
					<path class="st4" d="M147.7,253.9c-0.7,0.2-1.2,0.9-1,1.6c0.2,0.7,0.9,1.2,1.6,1c0.7-0.1,1.2-0.8,1-1.6
						C149.1,254.2,148.4,253.8,147.7,253.9z"/>
					<path class="st4" d="M198.8,242.9c-0.7,0.2-1.2,0.9-1,1.6c0.2,0.7,0.8,1.2,1.6,1c0.7-0.2,1.2-0.8,1-1.6
						C200.2,243.2,199.5,242.7,198.8,242.9z"/>
					<path class="st4" d="M188.6,245.1c-0.7,0.2-1.2,0.9-1,1.6c0.2,0.7,0.8,1.2,1.6,1c0.7-0.2,1.2-0.8,1-1.6
						C190,245.4,189.3,244.9,188.6,245.1z"/>
					<path class="st4" d="M178.4,247.3c-0.7,0.2-1.2,0.9-1,1.6c0.2,0.7,0.9,1.2,1.6,1c0.7-0.1,1.2-0.8,1-1.6
						C179.8,247.6,179.1,247.1,178.4,247.3z"/>
					<path class="st4" d="M168.2,249.5c-0.7,0.2-1.2,0.8-1,1.6c0.2,0.7,0.9,1.2,1.6,1c0.7-0.1,1.2-0.8,1-1.6
						C169.6,249.8,168.9,249.3,168.2,249.5z"/>
					<path class="st4" d="M157.9,251.7c-0.7,0.2-1.2,0.8-1,1.6c0.2,0.7,0.8,1.2,1.6,1c0.7-0.2,1.2-0.9,1-1.6
						C159.3,252,158.6,251.6,157.9,251.7z"/>
				</g>
			</g>
			<g>
				<path class="st7" d="M194.3,34.5c-11.7-2.8-41.9-10.2-41.9-10.2h-38.9c0,0-30.9,7.7-41.9,10.2c-8.8,2-14.6,3.4-16.6,10.8h156
					C209.1,38.1,203.6,36.8,194.3,34.5z"/>
				<path class="st2" d="M210.9,45.3H55c-0.5,1.9-0.8,4.1-0.8,6.8c0,8.9,0,39.4,0,67.1l78.7,22.5l78.7-22.5c0-27.8,0-58.2,0-67.1
					C211.7,49.4,211.4,47.2,210.9,45.3z"/>
				<path class="st2" d="M210.9,45.3h-2.7c0.5,1.8,0.7,3.9,0.7,6.6c0,8.6,0,38,0,64.8l-76,21.7l-76-21.7c0-26.8,0-56.1,0-64.8
					c0-2.6,0.3-4.8,0.7-6.6H55c-0.5,1.9-0.8,4.1-0.8,6.8c0,8.9,0,39.4,0,67.1l78.7,22.5l78.7-22.5c0-27.8,0-58.2,0-67.1
					C211.7,49.4,211.4,47.2,210.9,45.3z"/>
				<g>
					<path class="st8" d="M54.2,125.3c0,24.4,0,45.3,0,45.3h157.5c0,0,0-20.9,0-45.3l-78.7,22.5L54.2,125.3z"/>
					<path class="st9" d="M132.9,147.8l-78.7-22.5c0,24.4,0,45.3,0,45.3h157.5c0,0,0-20.9,0-45.3L132.9,147.8z M209.1,167.8H56.8
						c0,0,0-18.4,0-38.7l76.2,21.5l76.2-21.5C209.1,149.5,209.1,167.8,209.1,167.8z"/>
					<path class="st10" d="M132.9,141.8l-78.7-22.5c0,2,0,4,0,6l78.7,22.5l78.7-22.5c0-2,0-4,0-6L132.9,141.8z"/>
					<path class="st11" d="M54.2,122.8c0,0.8,0,1.7,0,2.5l78.7,22.5l78.7-22.5c0-0.8,0-1.7,0-2.5l-78.7,22.5L54.2,122.8z"/>
				</g>
				<polygon class="st12" points="59.3,47.1 132.9,47.1 132.9,135.3 59.3,115.4 				"/>
				<polygon class="st13" points="59.3,130.6 132.9,153.2 132.9,165.3 59.3,165.3 				"/>
			</g>
			<g>
				<path class="st2" d="M204.8,104c0,4.5-3.6,8.2-8.2,8.2h-52c-4.5,0-8.2-3.7-8.2-8.2V58.3c0-4.5,3.6-8.2,8.2-8.2h52
					c4.5,0,8.2,3.7,8.2,8.2V104z"/>
				<g>
					<path class="st4" d="M202.9,102.7c0,4.3-3.4,7.7-7.7,7.7h-49.1c-4.3,0-7.7-3.4-7.7-7.7V59.6c0-4.2,3.4-7.7,7.7-7.7h49.1
						c4.3,0,7.7,3.4,7.7,7.7V102.7z"/>
					<path class="st14" d="M199.5,100.5c0,3.8-3.1,6.9-6.9,6.9h-44c-3.8,0-6.9-3.1-6.9-6.9V61.8c0-3.8,3.1-6.9,6.9-6.9h44
						c3.8,0,6.9,3.1,6.9,6.9V100.5z"/>
				</g>
				<g>
					<path class="st2" d="M128.4,104c0,4.5-3.6,8.2-8.2,8.2h-52c-4.5,0-8.2-3.7-8.2-8.2V58.3c0-4.5,3.7-8.2,8.2-8.2h52
						c4.5,0,8.2,3.7,8.2,8.2V104z"/>
					<path class="st4" d="M126.5,102.7c0,4.3-3.5,7.7-7.7,7.7H69.7c-4.3,0-7.7-3.4-7.7-7.7V59.6c0-4.2,3.4-7.7,7.7-7.7h49.1
						c4.2,0,7.7,3.4,7.7,7.7V102.7z"/>
					<path class="st14" d="M123.2,100.5c0,3.8-3.1,6.9-6.9,6.9h-44c-3.8,0-6.9-3.1-6.9-6.9V61.8c0-3.8,3.1-6.9,6.9-6.9h44
						c3.8,0,6.9,3.1,6.9,6.9V100.5z"/>
					<path class="st15" d="M67.4,102.3V63.7c0-3.8,3.1-6.9,6.9-6.9h43.9C122,56.8,67.4,106.1,67.4,102.3z"/>
					<path class="st15" d="M143.6,102.3V63.7c0-3.8,3.1-6.9,6.9-6.9h43.9C198.2,56.8,143.6,106.1,143.6,102.3z"/>
				</g>
				<g>
					<g>
						<path class="st16" d="M97,161.1c0,2.7-2.1,4.8-4.8,4.8H61.8c-2.6,0-4.8-2.2-4.8-4.8v-16.4c0-2.7,2.1-4.8,4.8-4.8h30.4
							c2.6,0,4.8,2.2,4.8,4.8V161.1z"/>
						<path class="st4" d="M96.4,160.7c0,2.5-2.1,4.6-4.6,4.6H62.3c-2.5,0-4.6-2.1-4.6-4.6v-15.6c0-2.6,2.1-4.6,4.6-4.6h29.5
							c2.6,0,4.6,2.1,4.6,4.6V160.7z"/>
						<path class="st17" d="M94.7,159.3c0,2.3-1.9,4.2-4.2,4.2H63.6c-2.3,0-4.2-1.9-4.2-4.2v-12.8c0-2.3,1.9-4.2,4.2-4.2h26.9
							c2.3,0,4.2,1.9,4.2,4.2V159.3z"/>
						<path class="st1" d="M90.5,142.3h-1.7c2,0,3.7,1.7,3.7,3.7v11.2c0,2-1.7,3.7-3.7,3.7H65.3c-2,0-3.7-1.7-3.7-3.7v-11.2
							c0-2,1.7-3.7,3.7-3.7h-1.7c-2.3,0-4.2,1.9-4.2,4.2v12.8c0,2.3,1.9,4.2,4.2,4.2h26.9c2.3,0,4.2-1.9,4.2-4.2v-12.8
							C94.7,144.2,92.8,142.3,90.5,142.3z"/>
					</g>
					<path class="st1" d="M74.9,153.4c0,3.1-2.5,5.6-5.6,5.6c-3.1,0-5.6-2.5-5.6-5.6c0-3.1,2.5-5.6,5.6-5.6
						C72.4,147.8,74.9,150.3,74.9,153.4z"/>
					<path class="st1" d="M91.1,153.4c0,3.1-2.5,5.6-5.6,5.6c-3.1,0-5.6-2.5-5.6-5.6c0-3.1,2.5-5.6,5.6-5.6
						C88.6,147.8,91.1,150.3,91.1,153.4z"/>
					<path class="st18" d="M74.4,152.9c0,3.1-2.5,5.6-5.6,5.6c-3.1,0-5.6-2.5-5.6-5.6c0-3.1,2.5-5.6,5.6-5.6
						C71.8,147.2,74.4,149.8,74.4,152.9z"/>
					<path class="st18" d="M90.6,152.9c0,3.1-2.5,5.6-5.6,5.6c-3.1,0-5.6-2.5-5.6-5.6c0-3.1,2.5-5.6,5.6-5.6
						C88,147.2,90.6,149.8,90.6,152.9z"/>
					<g>
						<path class="st19" d="M63.4,151.1l7.1,7.1c0.8-0.3,1.5-0.7,2.1-1.3l-7.9-7.9C64.1,149.6,63.7,150.3,63.4,151.1z"/>
						<path class="st20" d="M63.1,152.9c0,0.5,0.1,0.9,0.2,1.4l4.1,4.1c0.4,0.1,0.9,0.2,1.4,0.2c0.6,0,1.2-0.1,1.8-0.3l-7.1-7.1
							C63.2,151.7,63.1,152.3,63.1,152.9z"/>
						<path class="st19" d="M67.4,158.3l-4.1-4.1C63.8,156.2,65.4,157.8,67.4,158.3z"/>
						<path class="st20" d="M73.8,155.3l-7.5-7.5c-0.6,0.3-1.2,0.7-1.7,1.2l7.9,7.9C73.1,156.5,73.5,155.9,73.8,155.3z"/>
						<path class="st20" d="M68.8,147.3l5.5,5.5C74.3,149.7,71.9,147.3,68.8,147.3z"/>
						<path class="st20" d="M74.4,152.9c0,0,0-0.1,0-0.1l-5.5-5.5c0,0-0.1,0-0.1,0c-0.9,0-1.7,0.2-2.4,0.6l7.5,7.5
							C74.2,154.6,74.4,153.7,74.4,152.9z"/>
					</g>
					<g>
						<path class="st19" d="M79.6,151.1l7.1,7.1c0.8-0.3,1.5-0.7,2.1-1.3l-7.9-7.9C80.3,149.6,79.9,150.3,79.6,151.1z"/>
						<path class="st20" d="M79.3,152.9c0,0.5,0.1,0.9,0.2,1.4l4.1,4.1c0.4,0.1,0.9,0.2,1.4,0.2c0.6,0,1.2-0.1,1.8-0.3l-7.1-7.1
							C79.4,151.7,79.3,152.3,79.3,152.9z"/>
						<path class="st19" d="M83.6,158.3l-4.1-4.1C80,156.2,81.6,157.8,83.6,158.3z"/>
						<path class="st20" d="M90,155.3l-7.5-7.5c-0.6,0.3-1.2,0.7-1.7,1.2l7.9,7.9C89.3,156.5,89.7,155.9,90,155.3z"/>
						<path class="st20" d="M85,147.3l5.5,5.5C90.5,149.7,88.1,147.3,85,147.3z"/>
						<path class="st20" d="M90.6,152.9c0,0,0-0.1,0-0.1l-5.5-5.5c0,0-0.1,0-0.1,0c-0.9,0-1.7,0.2-2.4,0.6l7.5,7.5
							C90.4,154.6,90.6,153.7,90.6,152.9z"/>
					</g>
					<path class="st18" d="M84.9,147.2c-3.1,0-5.6,2.5-5.6,5.6c0,3.1,2.5,5.6,5.6,5.6c3.1,0,5.6-2.5,5.6-5.6
						C90.6,149.8,88,147.2,84.9,147.2z M84.4,156.8c-2.5,0-4.5-2-4.5-4.5c0-2.5,2-4.5,4.5-4.5c2.5,0,4.5,2,4.5,4.5
						C88.9,154.8,86.9,156.8,84.4,156.8z"/>
					<path class="st18" d="M68.7,147.2c-3.1,0-5.6,2.5-5.6,5.6c0,3.1,2.5,5.6,5.6,5.6c3.1,0,5.6-2.5,5.6-5.6
						C74.4,149.8,71.8,147.2,68.7,147.2z M68.2,156.8c-2.5,0-4.5-2-4.5-4.5c0-2.5,2-4.5,4.5-4.5c2.5,0,4.5,2,4.5,4.5
						C72.7,154.8,70.7,156.8,68.2,156.8z"/>
				</g>
				<g>
					<path class="st16" d="M208.4,161.1c0,2.7-2.1,4.8-4.8,4.8h-30.4c-2.6,0-4.8-2.2-4.8-4.8v-16.4c0-2.7,2.1-4.8,4.8-4.8h30.4
						c2.6,0,4.8,2.2,4.8,4.8V161.1z"/>
					<g>
						<path class="st4" d="M207.8,160.7c0,2.5-2.1,4.6-4.6,4.6h-29.5c-2.5,0-4.6-2.1-4.6-4.6v-15.6c0-2.6,2.1-4.6,4.6-4.6h29.5
							c2.6,0,4.6,2.1,4.6,4.6V160.7z"/>
						<path class="st17" d="M206.1,159.3c0,2.3-1.9,4.2-4.2,4.2H175c-2.3,0-4.2-1.9-4.2-4.2v-12.8c0-2.3,1.9-4.2,4.2-4.2h26.9
							c2.3,0,4.2,1.9,4.2,4.2V159.3z"/>
					</g>
					<path class="st1" d="M186.3,153.4c0,3.1-2.5,5.6-5.6,5.6c-3.1,0-5.6-2.5-5.6-5.6c0-3.1,2.5-5.6,5.6-5.6
						C183.8,147.8,186.3,150.3,186.3,153.4z"/>
					<path class="st1" d="M202.5,153.4c0,3.1-2.5,5.6-5.6,5.6c-3.1,0-5.6-2.5-5.6-5.6c0-3.1,2.5-5.6,5.6-5.6
						C200,147.8,202.5,150.3,202.5,153.4z"/>
					<path class="st18" d="M185.8,152.9c0,3.1-2.5,5.6-5.6,5.6c-3.1,0-5.6-2.5-5.6-5.6c0-3.1,2.5-5.6,5.6-5.6
						C183.3,147.2,185.8,149.8,185.8,152.9z"/>
					<path class="st18" d="M202,152.9c0,3.1-2.5,5.6-5.6,5.6c-3.1,0-5.6-2.5-5.6-5.6c0-3.1,2.5-5.6,5.6-5.6
						C199.5,147.2,202,149.8,202,152.9z"/>
					<path class="st1" d="M201.9,142.3h-1.7c2,0,3.7,1.7,3.7,3.7v11.2c0,2-1.7,3.7-3.7,3.7h-23.5c-2,0-3.7-1.7-3.7-3.7v-11.2
						c0-2,1.6-3.7,3.7-3.7H175c-2.3,0-4.2,1.9-4.2,4.2v12.8c0,2.3,1.9,4.2,4.2,4.2h26.9c2.3,0,4.2-1.9,4.2-4.2v-12.8
						C206.1,144.2,204.2,142.3,201.9,142.3z"/>
					<g>
						<path class="st19" d="M174.8,151.1l7.1,7.1c0.8-0.3,1.5-0.7,2.1-1.3l-7.9-7.9C175.5,149.6,175.1,150.3,174.8,151.1z"/>
						<path class="st20" d="M174.5,152.9c0,0.5,0.1,0.9,0.2,1.4l4.1,4.1c0.4,0.1,0.9,0.2,1.4,0.2c0.6,0,1.2-0.1,1.8-0.3l-7.1-7.1
							C174.6,151.7,174.5,152.3,174.5,152.9z"/>
						<path class="st19" d="M178.8,158.3l-4.1-4.1C175.2,156.2,176.8,157.8,178.8,158.3z"/>
						<path class="st20" d="M185.2,155.3l-7.5-7.5c-0.6,0.3-1.2,0.7-1.7,1.2l7.9,7.9C184.5,156.5,184.9,155.9,185.2,155.3z"/>
						<path class="st20" d="M180.3,147.3l5.5,5.5C185.7,149.7,183.3,147.3,180.3,147.3z"/>
						<path class="st20" d="M185.8,152.9c0,0,0-0.1,0-0.1l-5.5-5.5c0,0-0.1,0-0.1,0c-0.9,0-1.7,0.2-2.4,0.6l7.5,7.5
							C185.6,154.6,185.8,153.7,185.8,152.9z"/>
					</g>
					<g>
						<path class="st19" d="M191,151.1l7.1,7.1c0.8-0.3,1.5-0.7,2.1-1.3l-7.9-7.9C191.7,149.6,191.3,150.3,191,151.1z"/>
						<path class="st20" d="M190.7,152.9c0,0.5,0.1,0.9,0.2,1.4l4.1,4.1c0.4,0.1,0.9,0.2,1.4,0.2c0.6,0,1.2-0.1,1.8-0.3l-7.1-7.1
							C190.8,151.7,190.7,152.3,190.7,152.9z"/>
						<path class="st19" d="M195,158.3l-4.1-4.1C191.4,156.2,193,157.8,195,158.3z"/>
						<path class="st20" d="M201.4,155.3l-7.5-7.5c-0.6,0.3-1.2,0.7-1.7,1.2l7.9,7.9C200.7,156.5,201.1,155.9,201.4,155.3z"/>
						<path class="st20" d="M196.5,147.3l5.5,5.5C201.9,149.7,199.5,147.3,196.5,147.3z"/>
						<path class="st20" d="M202,152.9c0,0,0-0.1,0-0.1l-5.5-5.5c0,0-0.1,0-0.1,0c-0.9,0-1.7,0.2-2.4,0.6l7.5,7.5
							C201.8,154.6,202,153.7,202,152.9z"/>
					</g>
					<path class="st18" d="M196.4,147.2c-3.1,0-5.6,2.5-5.6,5.6c0,3.1,2.5,5.6,5.6,5.6c3.1,0,5.6-2.5,5.6-5.6
						C202,149.8,199.5,147.2,196.4,147.2z M195.8,156.8c-2.5,0-4.5-2-4.5-4.5c0-2.5,2-4.5,4.5-4.5c2.5,0,4.5,2,4.5,4.5
						C200.3,154.8,198.3,156.8,195.8,156.8z"/>
					<path class="st18" d="M180.2,147.2c-3.1,0-5.6,2.5-5.6,5.6c0,3.1,2.5,5.6,5.6,5.6c3.1,0,5.6-2.5,5.6-5.6
						C185.8,149.8,183.3,147.2,180.2,147.2z M179.6,156.8c-2.5,0-4.5-2-4.5-4.5c0-2.5,2-4.5,4.5-4.5c2.5,0,4.5,2,4.5,4.5
						C184.1,154.8,182.1,156.8,179.6,156.8z"/>
				</g>
			</g>
			<g>
				<rect x="46.1" y="55.9" class="st2" width="8.1" height="6.1"/>
				<rect x="50.1" y="62" class="st4" width="4.1" height="94"/>
				<rect x="46.1" y="156" class="st2" width="8.1" height="6.1"/>
				<rect x="52.2" y="55.9" class="st2" width="2" height="6.1"/>
				<rect x="52.2" y="156" class="st2" width="2" height="6.1"/>
			</g>
			<g>
				<rect x="211.7" y="55.9" class="st2" width="8.1" height="6.1"/>
				<rect x="211.7" y="55.9" class="st2" width="2" height="6.1"/>
				<rect x="211.7" y="62" class="st4" width="4.1" height="94"/>
				<rect x="211.7" y="156" class="st2" width="8.1" height="6.1"/>
				<rect x="211.7" y="156" class="st2" width="2" height="6.1"/>
			</g>
			<polygon class="st1" points="54.2,172.9 54.2,206.1 55.5,206.1 55.5,196.9 97.4,196.9 100.9,179 164.9,179 168.4,196.9 
				210.3,196.9 210.3,206.1 211.7,206.1 211.7,172.9 			"/>
			<polygon class="st21" points="45.9,170.6 45.9,194.6 95.9,194.6 99.5,176.7 166.3,176.7 170,194.6 219.9,194.6 219.9,170.6 			
				"/>
			<polygon class="st22" points="217,170.6 217,188.8 171.1,188.8 168,174.1 97.8,174.1 94.7,188.8 48.8,188.8 48.8,170.6 
				45.9,170.6 45.9,194.6 95.9,194.6 99.5,176.7 166.3,176.7 170,194.6 219.9,194.6 219.9,170.6 			"/>
			<path class="st23" d="M194.3,34.5c-11.7-2.8-41.9-10.2-41.9-10.2h-38.9c0,0-30.9,7.7-41.9,10.2c-8.8,2-14.6,3.4-16.6,10.8h156
				C209.1,38.1,203.6,36.8,194.3,34.5z M63,43.8c1.8-5.9,7-7,14.9-8.6c7.3-1.5,24.2-5.2,32.6-7v7.3h44.7v-7.3
				c8.3,1.8,25,5.4,32.7,7.1c8.3,1.8,13.3,2.8,14.9,8.6H63z"/>
			<path class="st7" d="M66.8,42.6c0,0,2.5-3.3,14.6-5.8c15.7-3.2,25.4-4.8,25.4-4.8l-27.5,7.8l121.7,2.9H66.8z"/>
			<path class="st2" d="M53.1,208.8h160.2C213.3,208.8,132.5,212,53.1,208.8z"/>
			<polygon class="st3" points="60.7,215.4 55.5,239.7 62.6,218.3 131.2,215.4 			"/>
			<path class="st24" d="M133,205.3c-10.2,0-11.8-12.9-12-18.7v21.7h23.8v-21.1C144.5,193.3,142.8,205.3,133,205.3z"/>
			<path class="st24" d="M115,202.7c-5.2,0-6-11-6.1-15.9v18.4H121v-17.9C120.9,192.6,120,202.7,115,202.7z"/>
			<path class="st24" d="M150.9,203.9c-5.2,0-6-11-6.1-15.9v18.4H157v-17.9C156.8,193.7,155.9,203.9,150.9,203.9z"/>
			<path class="st2" d="M217.1,242.6l-84.2,18.2l-84.2-18.2l-1.3,5.8l85.5,18.6l85.5-17.9L217.1,242.6z M132.9,265.9l-84.5-18.7
				l1.1-3.6l83.4,17.9V265.9z"/>
			<g>
				<rect x="111.5" y="15.1" class="st17" width="42.9" height="18.5"/>
				<path class="st25" d="M132.9,31c-20,0-21.4-12.9-21.5-15.5v18h42.9v-18C154.3,18.2,152.9,31,132.9,31z"/>
				<path class="st25" d="M129.5,25.1c0,3.5-2.8,6.4-6.4,6.4c-3.5,0-6.4-2.8-6.4-6.4s2.8-6.4,6.4-6.4
					C126.7,18.7,129.5,21.5,129.5,25.1z"/>
				<path class="st25" d="M148.9,25.1c0,3.5-2.8,6.4-6.4,6.4c-3.5,0-6.4-2.8-6.4-6.4s2.8-6.4,6.4-6.4
					C146,18.7,148.9,21.5,148.9,25.1z"/>
				<g>
					<path class="st3" d="M129.5,24.3c0,3.5-2.8,6.4-6.4,6.4c-3.5,0-6.4-2.8-6.4-6.4c0-3.5,2.8-6.4,6.4-6.4
						C126.7,18,129.5,20.8,129.5,24.3z"/>
					<path class="st25" d="M127,24.3c0,2.1-1.7,3.8-3.8,3.8c-2.1,0-3.8-1.7-3.8-3.8c0-2.1,1.7-3.8,3.8-3.8
						C125.3,20.5,127,22.2,127,24.3z"/>
					<path class="st10" d="M126.3,24.3c0,1.7-1.4,3.1-3.1,3.1c-1.7,0-3.1-1.4-3.1-3.1c0-1.7,1.4-3.1,3.1-3.1
						C124.9,21.2,126.3,22.6,126.3,24.3z"/>
				</g>
				<g>
					<path class="st3" d="M148.9,24.3c0,3.5-2.8,6.4-6.4,6.4c-3.5,0-6.4-2.8-6.4-6.4c0-3.5,2.8-6.4,6.4-6.4
						C146,18,148.9,20.8,148.9,24.3z"/>
					<path class="st25" d="M146.4,24.3c0,2.1-1.7,3.8-3.8,3.8c-2.1,0-3.8-1.7-3.8-3.8c0-2.1,1.7-3.8,3.8-3.8
						C144.6,20.5,146.4,22.2,146.4,24.3z"/>
					<path class="st10" d="M145.6,24.3c0,1.7-1.4,3.1-3.1,3.1c-1.7,0-3.1-1.4-3.1-3.1c0-1.7,1.4-3.1,3.1-3.1
						C144.2,21.2,145.6,22.6,145.6,24.3z"/>
				</g>
			</g>
			<path class="st17" d="M111.9,15.5h42C153.9,15.5,134.5,18.4,111.9,15.5z"/>
			<polygon class="st2" points="132.2,265 50.3,244.1 132.2,262.1 			"/>
		</g>
	</g>
</g>
</svg>
